<svg width="21" height="20" viewBox="0 0 21 20" fill="none" xmlns="http://www.w3.org/2000/svg">
<path d="M10.4199 0C4.90873 0 0.440674 4.47737 0.440674 10C0.440674 14.2387 3.06894 17.8601 6.78138 19.3169C6.69103 18.5267 6.61711 17.3086 6.81423 16.4444C6.99493 15.6626 7.98053 11.4733 7.98053 11.4733C7.98053 11.4733 7.68485 10.8724 7.68485 9.99177C7.68485 8.60082 8.48975 7.56379 9.49178 7.56379C10.346 7.56379 10.7566 8.20576 10.7566 8.97119C10.7566 9.82716 10.2146 11.1111 9.92709 12.3045C9.6889 13.3004 10.4281 14.1152 11.4055 14.1152C13.1796 14.1152 14.543 12.2387 14.543 9.53909C14.543 7.14403 12.8264 5.47325 10.3706 5.47325C7.52879 5.47325 5.86148 7.60494 5.86148 9.8107C5.86148 10.6667 6.19002 11.5885 6.60068 12.0905C6.68282 12.1893 6.69103 12.2798 6.66639 12.3786C6.59247 12.6914 6.41999 13.3745 6.38714 13.5144C6.34607 13.6955 6.2393 13.7366 6.05039 13.6461C4.80196 13.0617 4.02169 11.2428 4.02169 9.76955C4.02169 6.61728 6.305 3.72016 10.617 3.72016C14.0748 3.72016 16.7688 6.1893 16.7688 9.49794C16.7688 12.9465 14.6005 15.7202 11.5944 15.7202C10.5842 15.7202 9.63141 15.1934 9.31109 14.5679C9.31109 14.5679 8.81008 16.4774 8.68688 16.9465C8.46511 17.8189 7.85733 18.9053 7.44666 19.572C8.38298 19.8601 9.36858 20.0165 10.4035 20.0165C15.9146 20.0165 20.3827 15.5391 20.3827 10.0165C20.3991 4.47737 15.931 0 10.4199 0Z" fill="#E60019"/>
</svg>
