<svg width="21" height="20" viewBox="0 0 21 20" fill="none" xmlns="http://www.w3.org/2000/svg">
<path d="M19.0026 0H1.99089C1.60015 0 1.2254 0.151307 0.949103 0.420635C0.672802 0.689962 0.517578 1.05525 0.517578 1.43614V18.0186C0.517578 18.3995 0.672802 18.7647 0.949103 19.0341C1.2254 19.3034 1.60015 19.4547 1.99089 19.4547H19.0026C19.3934 19.4547 19.7681 19.3034 20.0444 19.0341C20.3207 18.7647 20.476 18.3995 20.476 18.0186V1.43614C20.476 1.05525 20.3207 0.689962 20.0444 0.420635C19.7681 0.151307 19.3934 0 19.0026 0ZM6.46628 16.573H3.4656V7.282H6.46628V16.573ZM4.96386 5.99448C4.62348 5.99261 4.2913 5.8925 4.00924 5.70678C3.72718 5.52107 3.50787 5.25806 3.37901 4.95097C3.25014 4.64388 3.21749 4.30645 3.28517 3.98129C3.35284 3.65612 3.51782 3.35778 3.75928 3.12392C4.00074 2.89007 4.30785 2.73117 4.64187 2.66729C4.97588 2.60341 5.32182 2.6374 5.63603 2.76499C5.95024 2.89257 6.21864 3.10802 6.40735 3.38416C6.59606 3.66029 6.69663 3.98472 6.69636 4.31651C6.69957 4.53865 6.65687 4.75914 6.5708 4.96484C6.48473 5.17055 6.35705 5.35726 6.19538 5.51384C6.03371 5.67042 5.84135 5.79368 5.62977 5.87625C5.41819 5.95883 5.19172 5.99904 4.96386 5.99448ZM17.5265 16.5811H14.5272V11.5053C14.5272 10.0084 13.8744 9.54632 13.0318 9.54632C12.1419 9.54632 11.2688 10.2002 11.2688 11.5431V16.5811H8.26808V7.28876H11.1537V8.57628H11.1925C11.4822 8.0048 12.4968 7.02801 14.0449 7.02801C15.7192 7.02801 17.5279 7.99669 17.5279 10.8338L17.5265 16.5811Z" fill="#0A66C2"/>
</svg>
